<svg xmlns="http://www.w3.org/2000/svg" viewBox="0 0 1000 1000" xml:space="preserve"><path d="M75.01 202.4c-25.96 6.34-48.65 24.53-59.49 47.63L10 261.88v476.3l5.52 11.86c6.75 14.51 22.69 31.69 36.39 39.04 21.87 11.86 1.23 11.45 448.09 11.45 290.89 0 413.34-.61 421.11-2.25 24.94-5.11 50.08-23.51 60.51-43.95 8.59-16.97 8.79-21.87 8.18-262.48l-.61-229.97-5.52-11.86c-11.24-24.12-35.36-42.52-62.55-48.24-16.57-3.47-831.6-2.86-846.11.62zm819.11 55.19c0 2.25-367.55 321.96-374.5 325.85-11.45 6.13-28.62 6.13-40.06-.2-7.15-3.68-374.5-323.4-374.5-325.64 0-.41 177.44-.82 394.53-.82s394.53.4 394.53.81zM174.15 407.84c51.92 45.59 94.44 83.2 94.44 83.81 0 .61-45.59 46.81-101.19 102.42L66.22 695.26V313.6l6.75 5.72c3.67 3.28 49.05 43.14 101.18 88.52zm758.81 97.71v189.7L831.77 594.07c-55.6-55.6-100.98-102.01-100.58-102.83.61-2.25 198.29-175.19 200.33-175.19.83.01 1.44 85.25 1.44 189.5zm-555 80.75c34.75 30.66 59.08 50.29 68.07 55.19 30.66 16.97 67.67 18.19 100.37 3.47 15.33-6.95 17.38-8.58 79.93-63.17 26.37-23.1 49.26-42.93 50.9-43.75 2.04-1.23 30.66 26.17 104.66 100.17 56.22 56.03 102.01 102.63 102.01 103.45 0 1.02-172.94 1.64-384.31 1.64s-384.31-.61-384.31-1.43c0-3.27 203.6-205.03 205.85-204.22 1.43.61 26.98 22.48 56.83 48.65z"/></svg>
